<?xml version="1.0" encoding="utf-8"?>
<!-- Generator: Adobe Illustrator 24.1.0, SVG Export Plug-In . SVG Version: 6.00 Build 0)  -->
<svg version="1.1" id="Layer_1" xmlns="http://www.w3.org/2000/svg" xmlns:xlink="http://www.w3.org/1999/xlink" x="0px" y="0px"
	 viewBox="0 0 516.7 103.5" style="enable-background:new 0 0 516.7 103.5;" xml:space="preserve">
<style type="text/css">
	.st0{fill:#FFFFFF;}
</style>
<g id="Art">
	<g>
		<path class="st0" d="M516.6,46.5V40h-7.6v-9.3h-6.5V40h-6.1v6.5h6.1v18.7c0,5.4,4.5,9.9,9.9,9.9h4.3v-6.5h-4.3
			c-1.8,0-3.4-1.4-3.4-3.4V46.5H516.6z"/>
		<path class="st0" d="M478.9,39.4c7,0,12.5,5.7,12.5,12.6v10.5c0,6.8-5.7,12.6-12.5,12.6h-2.5c-6.8,0-12.5-5.7-12.5-12.6V52
			c0-7,5.7-12.6,12.5-12.6H478.9z M470.3,52v10.5c0,3.4,2.8,6.1,6.1,6.1h2.5c3.4,0,6.1-2.8,6.1-6.1V52c0-3.4-2.6-6.1-6.1-6.1h-2.5
			C473.1,45.8,470.3,48.6,470.3,52z"/>
		<path class="st0" d="M456.8,52v10.5c0,7-5.7,12.6-12.5,12.6h-0.8c-2.9,0-5.7-1.1-7.8-2.8v14h-6.5V40h6.5v2.1
			c2.1-1.7,4.7-2.8,7.8-2.8h0.8C451.1,39.4,456.8,45,456.8,52z M450.3,52c0-3.3-2.6-6.1-6.1-6.1h-2.5c-3.3,0-6.1,2.8-6.1,6.1v10.5
			c0,3.4,2.8,6.1,6.1,6.1h2.5c3.4,0,6.1-2.8,6.1-6.1V52z"/>
		<path class="st0" d="M398.8,63.7c0.7,2.8,3,4.9,6.1,4.9h4.5c3.3,0,6.1-2.8,6.1-6.1c0-3.8-2.4-6.1-5.8-7.4l-5.9-2.2
			c-5.5-2.1-10.1-5.8-10.1-12.8s5.7-12.6,12.5-12.6h3.2c5.8,0,10.8,4,12.1,9.5l-6.3,1.8c-0.5-2.8-3-4.7-5.9-4.7h-2.9
			c-3.4,0-6.1,2.8-6.1,6.1c0,2.6,0.9,4.6,6.2,6.7l5.9,2.4c6.1,2.5,9.9,7,9.9,13.3c0,7-5.7,12.5-12.5,12.5h-4.7
			c-5.9,0-10.8-4.1-12.2-9.5L398.8,63.7z"/>
		<path class="st0" d="M386.5,46.5V40h-7.6v-9.3h-6.5V40h-6.1v6.5h6.1v18.7c0,5.4,4.5,9.9,9.9,9.9h4.3v-6.5h-4.3
			c-1.8,0-3.4-1.4-3.4-3.4V46.5H386.5z"/>
		<path class="st0" d="M360.7,52v22.5h-6.5V52c0-3.4-2.6-6.1-6.1-6.1h-2.5c-3.3,0-6.1,2.8-6.1,6.1v22.5h-6.5V28.2h6.5v14
			c2.1-1.7,4.7-2.8,7.8-2.8h0.8C355,39.4,360.7,45,360.7,52z"/>
		<path class="st0" d="M324.7,40v34.2c0,7-5.5,12.5-12.5,12.5h-2.6c-5.9,0-10.8-4.1-12.1-9.5l6.2-1.8c0.7,2.6,3,4.7,5.9,4.7h2.6
			c3.3,0,6.1-2.8,6.1-6.1v-4.1c-2.1,1.7-4.7,2.8-7.8,2.8h-0.8c-6.8,0-12.5-5.7-12.5-12.6v-8.4c0-7,5.7-12.6,12.5-12.6h0.8
			c2.9,0,5.7,1.1,7.8,2.8v-2.1L324.7,40L324.7,40z M318.1,60.4V52c0-3.4-2.6-6.1-6.1-6.1h-2.5c-3.3,0-6.1,2.8-6.1,6.1v8.4
			c0,3.3,2.8,6.1,6.1,6.1h2.5C315.5,66.5,318.1,63.7,318.1,60.4z"/>
		<path class="st0" d="M268.8,40v22.5c0,3.4,2.6,6.1,6.1,6.1h2.5c3.4,0,6.1-2.8,6.1-6.1V40h6.5v22.5c0,7-5.7,12.5-12.5,12.5h-2.5
			c-7,0-12.5-5.7-12.5-12.6V40H268.8L268.8,40z"/>
		<path class="st0" d="M242,39.4c7,0,12.5,5.7,12.5,12.6v10.5c0,6.8-5.7,12.6-12.5,12.6h-2.5c-6.8,0-12.5-5.7-12.5-12.6V52
			c0-7,5.7-12.6,12.5-12.6H242z M233.6,52v10.5c0,3.4,2.8,6.1,6.1,6.1h2.5c3.4,0,6.1-2.8,6.1-6.1V52c0-3.4-2.6-6.1-6.1-6.1h-2.5
			C236.4,45.8,233.6,48.6,233.6,52z"/>
		<path class="st0" d="M219.5,52v22.5h-6.5V52c0-3.4-2.6-6.1-6.1-6.1h-2.5c-3.3,0-6.1,2.8-6.1,6.1v22.5H192V28.2h6.5v14
			c2.1-1.7,4.7-2.8,7.8-2.8h0.8C214,39.4,219.5,45,219.5,52z"/>
		<path class="st0" d="M185.1,28.2v6.5h-13v39.8h-6.5V34.8h-13v-6.5L185.1,28.2L185.1,28.2z"/>
		<circle class="st0" cx="90.6" cy="90.6" r="12.9"/>
		<polygon class="st0" points="102.7,25.7 0,25.7 0,32.1 35.3,32.1 35.3,102.7 41.7,102.7 41.7,32.1 48.1,32.1 48.1,102.7 
			54.5,102.7 54.5,32.1 61,32.1 61,102.7 67.4,102.7 67.4,32.1 102.7,32.1 		"/>
		<rect y="12.9" class="st0" width="102.7" height="6.5"/>
		<rect class="st0" width="102.7" height="6.5"/>
	</g>
</g>
</svg>
