<svg version="1.1" id="Layer_1" xmlns="http://www.w3.org/2000/svg" x="0" y="0" viewBox="0 0 393.3 78.6" xml:space="preserve"><style>.st0{fill:#fff}</style><g id="Art"><path class="st0" d="M392.8 35.3v-4.9H387v-7.1h-4.9v7.1h-4.6v4.9h4.6v14.2c0 4.1 3.4 7.5 7.5 7.5h3.3v-4.9h-3.3c-1.4 0-2.6-1.1-2.6-2.6V35.3h5.8zm-28.6-5.4c5.3 0 9.5 4.3 9.5 9.6v8c0 5.2-4.3 9.6-9.5 9.6h-1.9c-5.2 0-9.5-4.3-9.5-9.6v-8c0-5.3 4.3-9.6 9.5-9.6h1.9zm-6.5 9.6v8c0 2.6 2.1 4.6 4.6 4.6h1.9c2.6 0 4.6-2.1 4.6-4.6v-8c0-2.6-2-4.6-4.6-4.6h-1.9c-2.5-.1-4.6 2-4.6 4.6zm-10.3 0v8c0 5.3-4.3 9.6-9.5 9.6h-.6c-2.2 0-4.3-.8-5.9-2.1v10.6h-4.9V30.4h4.9V32c1.6-1.3 3.6-2.1 5.9-2.1h.6c5.2 0 9.5 4.3 9.5 9.6zm-4.9 0c0-2.5-2-4.6-4.6-4.6H336c-2.5 0-4.6 2.1-4.6 4.6v8c0 2.6 2.1 4.6 4.6 4.6h1.9c2.6 0 4.6-2.1 4.6-4.6v-8zm-39.1 8.9c.5 2.1 2.3 3.7 4.6 3.7h3.4c2.5 0 4.6-2.1 4.6-4.6 0-2.9-1.8-4.6-4.4-5.6l-4.5-1.7c-4.2-1.6-7.7-4.4-7.7-9.7 0-5.3 4.3-9.6 9.5-9.6h2.4c4.4 0 8.2 3 9.2 7.2l-4.8 1.4c-.4-2.1-2.3-3.6-4.5-3.6H309c-2.6 0-4.6 2.1-4.6 4.6 0 2 .7 3.5 4.7 5.1l4.5 1.8c4.6 1.9 7.5 5.3 7.5 10.1 0 5.3-4.3 9.5-9.5 9.5H308c-4.5 0-8.2-3.1-9.3-7.2l4.7-1.4zM294 35.3v-4.9h-5.8v-7.1h-4.9v7.1h-4.6v4.9h4.6v14.2c0 4.1 3.4 7.5 7.5 7.5h3.3v-4.9h-3.3c-1.4 0-2.6-1.1-2.6-2.6V35.3h5.8zm-19.6 4.2v17.1h-4.9V39.5c0-2.6-2-4.6-4.6-4.6H263c-2.5 0-4.6 2.1-4.6 4.6v17.1h-4.9V21.4h4.9V32c1.6-1.3 3.6-2.1 5.9-2.1h.6c5.2 0 9.5 4.3 9.5 9.6zm-27.3-9.1v26c0 5.3-4.2 9.5-9.5 9.5h-2c-4.5 0-8.2-3.1-9.2-7.2l4.7-1.4c.5 2 2.3 3.6 4.5 3.6h2c2.5 0 4.6-2.1 4.6-4.6v-3.1c-1.6 1.3-3.6 2.1-5.9 2.1h-.6c-5.2 0-9.5-4.3-9.5-9.6v-6.4c0-5.3 4.3-9.6 9.5-9.6h.6c2.2 0 4.3.8 5.9 2.1v-1.6l4.9.2zm-5 15.5v-6.4c0-2.6-2-4.6-4.6-4.6h-1.9c-2.5 0-4.6 2.1-4.6 4.6v6.4c0 2.5 2.1 4.6 4.6 4.6h1.9c2.6 0 4.6-2.1 4.6-4.6zm-37.5-15.5v17.1c0 2.6 2 4.6 4.6 4.6h1.9c2.6 0 4.6-2.1 4.6-4.6V30.4h4.9v17.1c0 5.3-4.3 9.5-9.5 9.5h-1.9c-5.3 0-9.5-4.3-9.5-9.6v-17h4.9zm-20.3-.5c5.3 0 9.5 4.3 9.5 9.6v8c0 5.2-4.3 9.6-9.5 9.6h-1.9c-5.2 0-9.5-4.3-9.5-9.6v-8c0-5.3 4.3-9.6 9.5-9.6h1.9zm-6.4 9.6v8c0 2.6 2.1 4.6 4.6 4.6h1.9c2.6 0 4.6-2.1 4.6-4.6v-8c0-2.6-2-4.6-4.6-4.6h-1.9c-2.5-.1-4.6 2-4.6 4.6zm-10.7 0v17.1h-4.9V39.5c0-2.6-2-4.6-4.6-4.6h-1.9c-2.5 0-4.6 2.1-4.6 4.6v17.1h-4.9V21.4h4.9V32c1.6-1.3 3.6-2.1 5.9-2.1h.6c5.3 0 9.5 4.3 9.5 9.6zm-26.1-18.1v4.9h-9.9v30.2h-4.9V26.4h-9.9v-4.9l24.7-.1z"/><circle class="st0" cx="69.3" cy="68.8" r="9.8"/><path class="st0" d="M78.5 19.5H.5v4.9h26.8V78h4.9V24.4H37V78h4.9V24.4h4.9V78h4.9V24.4h26.8zM.5 9.8h78v4.9H.5zM.5 0h78v4.9H.5z"/></g></svg>